<svg width="26" height="22" viewBox="0 0 26 22" fill="none" xmlns="http://www.w3.org/2000/svg">
<path d="M16.25 12.4286C16.25 14.4309 14.747 15.9643 13 15.9643V17.4643C15.6712 17.4643 17.75 15.1601 17.75 12.4286H16.25ZM13 15.9643C11.253 15.9643 9.75 14.4309 9.75 12.4286H8.25C8.25 15.1601 10.3288 17.4643 13 17.4643V15.9643ZM9.75 12.4286C9.75 10.4263 11.253 8.89286 13 8.89286V7.39286C10.3288 7.39286 8.25 9.697 8.25 12.4286H9.75ZM13 8.89286C14.747 8.89286 16.25 10.4263 16.25 12.4286H17.75C17.75 9.697 15.6712 7.39286 13 7.39286V8.89286ZM24.25 6.71429V18.1429H25.75V6.71429H24.25ZM22.3333 20.25H3.66667V21.75H22.3333V20.25ZM1.75 18.1429V6.71429H0.25V18.1429H1.75ZM3.66667 4.60714H7V3.10714H3.66667V4.60714ZM19 4.60714H22.3333V3.10714H19V4.60714ZM9.66667 1.75H16.3333V0.25H9.66667V1.75ZM16.9167 2.42857C16.9167 3.58219 17.8015 4.60714 19 4.60714V3.10714C18.7257 3.10714 18.4167 2.85291 18.4167 2.42857H16.9167ZM7 4.60714C8.19849 4.60714 9.08333 3.58219 9.08333 2.42857H7.58333C7.58333 2.85291 7.27427 3.10714 7 3.10714V4.60714ZM18.4167 2.42857C18.4167 1.27496 17.5318 0.25 16.3333 0.25V1.75C16.6076 1.75 16.9167 2.00423 16.9167 2.42857H18.4167ZM9.08333 2.42857C9.08333 2.00423 9.3924 1.75 9.66667 1.75V0.25C8.46818 0.25 7.58333 1.27496 7.58333 2.42857H9.08333ZM3.66667 20.25C2.65602 20.25 1.75 19.3562 1.75 18.1429H0.25C0.25 20.0855 1.7318 21.75 3.66667 21.75V20.25ZM24.25 18.1429C24.25 19.3562 23.344 20.25 22.3333 20.25V21.75C24.2682 21.75 25.75 20.0855 25.75 18.1429H24.25ZM25.75 6.71429C25.75 4.77169 24.2682 3.10714 22.3333 3.10714V4.60714C23.344 4.60714 24.25 5.50097 24.25 6.71429H25.75ZM1.75 6.71429C1.75 5.50097 2.65602 4.60714 3.66667 4.60714V3.10714C1.7318 3.10714 0.25 4.77169 0.25 6.71429H1.75Z" fill="#262626"/>
</svg>
