<svg width="19" height="19" viewBox="0 0 19 19" fill="none" xmlns="http://www.w3.org/2000/svg">
<path d="M9 2.75C9.41421 2.75 9.75 2.41421 9.75 2C9.75 1.58579 9.41421 1.25 9 1.25L9 2.75ZM17.75 10C17.75 9.58579 17.4142 9.25 17 9.25C16.5858 9.25 16.25 9.58579 16.25 10H17.75ZM2.5 18L2.5 18.75L2.5 18ZM16.9393 6.06066L17.4697 6.59099L16.9393 6.06066ZM12.9393 2.06066L12.409 1.53033L12.9393 2.06066ZM5.43934 9.56066L5.96967 10.091L5.43934 9.56066ZM5.96967 10.091L13.4697 2.59099L12.409 1.53033L4.90901 9.03033L5.96967 10.091ZM14.5303 2.59099L16.409 4.46967L17.4697 3.40901L15.591 1.53033L14.5303 2.59099ZM16.409 5.53033L8.90901 13.0303L9.96967 14.091L17.4697 6.59099L16.409 5.53033ZM8.37868 13.25H6.5V14.75H8.37868V13.25ZM5.75 12.5V10.6213H4.25V12.5H5.75ZM10.4697 4.53033L14.4697 8.53033L15.5303 7.46967L11.5303 3.46967L10.4697 4.53033ZM15.5 17.25L2.5 17.25L2.5 18.75L15.5 18.75L15.5 17.25ZM1.75 16.5L1.75 3.5L0.250001 3.5L0.25 16.5L1.75 16.5ZM2.5 2.75L9 2.75L9 1.25L2.5 1.25L2.5 2.75ZM16.25 10V16.5H17.75V10H16.25ZM1.75 3.5C1.75 3.08579 2.08579 2.75 2.5 2.75L2.5 1.25C1.25736 1.25 0.250001 2.25736 0.250001 3.5L1.75 3.5ZM2.5 17.25C2.08579 17.25 1.75 16.9142 1.75 16.5L0.25 16.5C0.25 17.7426 1.25736 18.75 2.5 18.75L2.5 17.25ZM15.5 18.75C16.7426 18.75 17.75 17.7426 17.75 16.5H16.25C16.25 16.9142 15.9142 17.25 15.5 17.25L15.5 18.75ZM6.5 13.25C6.08579 13.25 5.75 12.9142 5.75 12.5H4.25C4.25 13.7426 5.25736 14.75 6.5 14.75V13.25ZM8.90901 13.0303C8.76836 13.171 8.57759 13.25 8.37868 13.25V14.75C8.97542 14.75 9.54771 14.5129 9.96967 14.091L8.90901 13.0303ZM16.409 4.46967C16.7019 4.76256 16.7019 5.23744 16.409 5.53033L17.4697 6.59099C18.3483 5.71231 18.3484 4.28769 17.4697 3.40901L16.409 4.46967ZM13.4697 2.59099C13.7626 2.2981 14.2374 2.2981 14.5303 2.59099L15.591 1.53033C14.7123 0.651651 13.2877 0.651649 12.409 1.53033L13.4697 2.59099ZM4.90901 9.03033C4.48705 9.45229 4.25 10.0246 4.25 10.6213H5.75C5.75 10.4224 5.82902 10.2316 5.96967 10.091L4.90901 9.03033Z" fill="#262626"/>
</svg>
