<svg width="26" height="26" viewBox="0 0 26 26" fill="none" xmlns="http://www.w3.org/2000/svg">
<path d="M23.7934 1.03563L1.69135 7.26955C1.50542 7.32203 1.33991 7.42992 1.21696 7.579C1.09401 7.72799 1.01948 7.91095 1.00332 8.10349C0.987172 8.29603 1.03016 8.48886 1.12654 8.65635C1.22293 8.82375 1.36813 8.95774 1.54273 9.04049L11.6978 13.8508C11.8959 13.9446 12.0554 14.1041 12.1492 14.3022L16.9595 24.4573C17.0422 24.6318 17.1762 24.777 17.3436 24.8734C17.5111 24.9698 17.7039 25.0128 17.8965 24.9967C18.089 24.9805 18.272 24.906 18.421 24.783C18.5701 24.6601 18.678 24.4946 18.7304 24.3086L24.9644 2.20655C25.0101 2.04421 25.0119 1.87258 24.9692 1.70936C24.9266 1.54614 24.8413 1.39722 24.722 1.27795C24.6028 1.15866 24.4539 1.07333 24.2906 1.03074C24.1274 0.988154 23.9558 0.989843 23.7934 1.03563Z" stroke="#262626" stroke-width="1.5" stroke-linecap="round" stroke-linejoin="round"/>
<path d="M12.0042 13.996L17.3723 8.62793" stroke="#262626" stroke-width="1.5" stroke-linecap="round" stroke-linejoin="round"/>
</svg>
