<svg width="26" height="26" viewBox="0 0 26 26" fill="none" xmlns="http://www.w3.org/2000/svg">
<path d="M24.4697 25.5303C24.7626 25.8232 25.2374 25.8232 25.5303 25.5303C25.8232 25.2374 25.8232 24.7626 25.5303 24.4697L24.4697 25.5303ZM21.4265 11.5882C21.4265 17.0217 17.0217 21.4265 11.5882 21.4265V22.9265C17.8502 22.9265 22.9265 17.8502 22.9265 11.5882H21.4265ZM11.5882 21.4265C6.15473 21.4265 1.75 17.0217 1.75 11.5882H0.25C0.25 17.8502 5.3263 22.9265 11.5882 22.9265V21.4265ZM1.75 11.5882C1.75 6.15473 6.15473 1.75 11.5882 1.75V0.25C5.3263 0.25 0.25 5.3263 0.25 11.5882H1.75ZM11.5882 1.75C17.0217 1.75 21.4265 6.15473 21.4265 11.5882H22.9265C22.9265 5.3263 17.8502 0.25 11.5882 0.25V1.75ZM25.5303 24.4697L19.6185 18.5578L18.5578 19.6185L24.4697 25.5303L25.5303 24.4697Z" fill="#262626"/>
</svg>
