<svg width="26" height="26" viewBox="0 0 26 26" fill="none" xmlns="http://www.w3.org/2000/svg">
<path d="M13 25C19.6274 25 25 19.6274 25 13C25 6.37258 19.6274 1 13 1C6.37258 1 1 6.37258 1 13C1 19.6274 6.37258 25 13 25Z" stroke="black" stroke-width="2" stroke-linecap="round" stroke-linejoin="round"/>
<path d="M8.5 12C9.32843 12 10 11.3284 10 10.5C10 9.67157 9.32843 9 8.5 9C7.67157 9 7 9.67157 7 10.5C7 11.3284 7.67157 12 8.5 12Z" fill="black"/>
<path d="M17.5 12C18.3284 12 19 11.3284 19 10.5C19 9.67157 18.3284 9 17.5 9C16.6716 9 16 9.67157 16 10.5C16 11.3284 16.6716 12 17.5 12Z" fill="black"/>
<path d="M18.1977 15.9996C17.6709 16.9119 16.9132 17.6694 16.0009 18.196C15.0885 18.7227 14.0537 19 13.0002 19C11.9468 19 10.9119 18.7227 9.99958 18.1961C9.08724 17.6694 8.32958 16.9119 7.80273 15.9997" stroke="black" stroke-width="2" stroke-linecap="round" stroke-linejoin="round"/>
</svg>
